<mxfile host="app.diagrams.net" modified="2024-04-05T06:10:48.198Z" agent="Mozilla/5.0 (X11; Linux x86_64) AppleWebKit/537.36 (KHTML, like Gecko) Chrome/122.0.0.0 Safari/537.36" version="24.2.2" etag="Jlb4o4ZKWWgRIgsApU3g" type="github">
  <diagram name="Page-1" id="6So2SB8BBsSmoBiU5lgi">
    <mxGraphModel>
      <root>
        <mxCell id="0" />
        <mxCell id="1" parent="0" />
      </root>
    </mxGraphModel>
  </diagram>
</mxfile>
